<svg xmlns="http://www.w3.org/2000/svg" xmlns:xlink="http://www.w3.org/1999/xlink" width="500" zoomAndPan="magnify" viewBox="0 0 375 374.999991" height="500" preserveAspectRatio="xMidYMid meet" version="1.0"><defs><g/></defs><rect x="-37.5" width="450" fill="#ffffff" y="-37.499999" height="449.999989" fill-opacity="1"/><rect x="-37.5" width="450" fill="#000000" y="-37.499999" height="449.999989" fill-opacity="1"/><g fill="#311ed6" fill-opacity="1"><g transform="translate(66.431023, 150.289949)"><g><path d="M 12.269531 0 L 16.035156 0 L 16.035156 -11.042969 L 27.558594 -30.671875 L 23.222656 -30.671875 L 14.195312 -15.160156 L 10.207031 -22.082031 L 5.214844 -30.671875 L 0.746094 -30.671875 L 12.269531 -11.042969 Z M 12.269531 0 "/></g></g></g><g fill="#311ed6" fill-opacity="1"><g transform="translate(93.808651, 150.289949)"><g><path d="M 18.402344 0.570312 C 27.734375 0.570312 34.308594 -6.003906 34.308594 -15.335938 C 34.308594 -24.667969 27.734375 -31.238281 18.402344 -31.238281 C 9.070312 -31.238281 2.542969 -24.667969 2.542969 -15.335938 C 2.542969 -6.003906 9.070312 0.570312 18.402344 0.570312 Z M 6.484375 -15.335938 C 6.484375 -22.476562 11.347656 -27.382812 18.402344 -27.382812 C 25.457031 -27.382812 30.320312 -22.476562 30.320312 -15.335938 C 30.320312 -8.195312 25.457031 -3.285156 18.402344 -3.285156 C 11.347656 -3.285156 6.484375 -8.195312 6.484375 -15.335938 Z M 6.484375 -15.335938 "/></g></g></g><g fill="#311ed6" fill-opacity="1"><g transform="translate(129.684409, 150.289949)"><g><path d="M 15.949219 0.527344 C 23.351562 0.527344 27.824219 -4.335938 27.824219 -12.488281 L 27.824219 -30.671875 L 23.96875 -30.671875 L 23.96875 -12.75 C 23.96875 -6.484375 21.207031 -3.242188 15.949219 -3.242188 C 10.734375 -3.242188 7.929688 -6.484375 7.929688 -12.75 L 7.929688 -30.671875 L 4.117188 -30.671875 L 4.117188 -12.488281 C 4.117188 -4.335938 8.542969 0.527344 15.949219 0.527344 Z M 15.949219 0.527344 "/></g></g></g><g fill="#311ed6" fill-opacity="1"><g transform="translate(160.697832, 150.289949)"><g><path d="M 4.46875 0 L 8.324219 0 L 8.324219 -10.996094 L 15.074219 -10.996094 L 22.566406 0 L 27.210938 0 L 19.496094 -11.390625 C 23.96875 -12.488281 26.726562 -15.859375 26.726562 -20.8125 C 26.726562 -26.902344 22.519531 -30.671875 16.167969 -30.671875 L 4.46875 -30.671875 Z M 8.324219 -14.679688 L 8.324219 -26.988281 L 15.730469 -26.988281 C 20.199219 -26.988281 22.785156 -24.710938 22.785156 -20.8125 C 22.785156 -16.914062 20.199219 -14.679688 15.730469 -14.679688 Z M 8.324219 -14.679688 "/></g></g></g><g fill="#311ed6" fill-opacity="1"><g transform="translate(189.608627, 150.289949)"><g/></g></g><g fill="#311ed6" fill-opacity="1"><g transform="translate(199.551963, 150.289949)"><g><path d="M 4.46875 0 L 16.914062 0 C 23.089844 0 26.945312 -3.285156 26.945312 -8.585938 C 26.945312 -12.050781 25.238281 -14.632812 22.082031 -15.90625 C 24.582031 -17.175781 26.070312 -19.542969 26.070312 -22.519531 C 26.070312 -27.472656 22.214844 -30.671875 16.34375 -30.671875 L 4.46875 -30.671875 Z M 8.324219 -3.59375 L 8.324219 -13.890625 L 16.78125 -13.890625 C 20.769531 -13.890625 23.003906 -12.003906 23.003906 -8.761719 C 23.003906 -5.476562 20.769531 -3.59375 16.824219 -3.59375 Z M 8.324219 -17.394531 L 8.324219 -27.078125 L 16.253906 -27.078125 C 19.980469 -27.078125 22.125 -25.324219 22.125 -22.214844 C 22.125 -19.148438 20.023438 -17.394531 16.253906 -17.394531 Z M 8.324219 -17.394531 "/></g></g></g><g fill="#311ed6" fill-opacity="1"><g transform="translate(228.024713, 150.289949)"><g><path d="M 4.46875 0 L 23.574219 0 L 23.574219 -3.59375 L 8.324219 -3.59375 L 8.324219 -13.84375 L 21.996094 -13.84375 L 21.996094 -17.394531 L 8.324219 -17.394531 L 8.324219 -27.078125 L 23.089844 -27.078125 L 23.089844 -30.671875 L 4.46875 -30.671875 Z M 4.46875 0 "/></g></g></g><g fill="#311ed6" fill-opacity="1"><g transform="translate(253.518737, 150.289949)"><g><path d="M 14.679688 0.570312 C 21.382812 0.570312 25.71875 -2.714844 25.71875 -8.0625 C 25.71875 -12.574219 22.695312 -15.292969 14.851562 -17.21875 C 8.894531 -18.664062 6.921875 -20.242188 6.921875 -22.785156 C 6.921875 -25.71875 9.550781 -27.558594 13.933594 -27.558594 C 18.445312 -27.558594 21.25 -25.28125 21.339844 -21.601562 L 25.148438 -21.601562 C 25.105469 -27.558594 20.8125 -31.238281 13.933594 -31.238281 C 7.230469 -31.238281 2.980469 -27.953125 2.980469 -22.785156 C 2.980469 -18.050781 6.351562 -15.421875 13.890625 -13.625 C 19.410156 -12.3125 21.730469 -10.777344 21.730469 -7.929688 C 21.730469 -4.90625 19.015625 -3.109375 14.679688 -3.109375 C 9.902344 -3.109375 6.570312 -5.476562 6.484375 -9.421875 L 2.628906 -9.421875 C 2.671875 -3.417969 7.359375 0.570312 14.679688 0.570312 Z M 14.679688 0.570312 "/></g></g></g><g fill="#311ed6" fill-opacity="1"><g transform="translate(280.940164, 150.289949)"><g><path d="M 11.875 0 L 15.730469 0 L 15.730469 -26.988281 L 26.070312 -26.988281 L 26.070312 -30.671875 L 1.488281 -30.671875 L 1.488281 -26.988281 L 11.875 -26.988281 Z M 11.875 0 "/></g></g></g><g fill="#311ed6" fill-opacity="1"><g transform="translate(70.638054, 193.789946)"><g><path d="M 4.46875 0 L 8.324219 0 L 8.324219 -12.925781 L 20.898438 -12.925781 L 20.898438 -16.472656 L 8.324219 -16.472656 L 8.324219 -27.078125 L 22.039062 -27.078125 L 22.039062 -30.671875 L 4.46875 -30.671875 Z M 4.46875 0 "/></g></g></g><g fill="#311ed6" fill-opacity="1"><g transform="translate(94.160867, 193.789946)"><g><path d="M 4.46875 0 L 8.324219 0 L 8.324219 -10.996094 L 15.074219 -10.996094 L 22.566406 0 L 27.210938 0 L 19.496094 -11.390625 C 23.96875 -12.488281 26.726562 -15.859375 26.726562 -20.8125 C 26.726562 -26.902344 22.519531 -30.671875 16.167969 -30.671875 L 4.46875 -30.671875 Z M 8.324219 -14.679688 L 8.324219 -26.988281 L 15.730469 -26.988281 C 20.199219 -26.988281 22.785156 -24.710938 22.785156 -20.8125 C 22.785156 -16.914062 20.199219 -14.679688 15.730469 -14.679688 Z M 8.324219 -14.679688 "/></g></g></g><g fill="#311ed6" fill-opacity="1"><g transform="translate(123.071656, 193.789946)"><g><path d="M 4.46875 0 L 8.324219 0 L 8.324219 -30.671875 L 4.46875 -30.671875 Z M 4.46875 0 "/></g></g></g><g fill="#311ed6" fill-opacity="1"><g transform="translate(134.942406, 193.789946)"><g><path d="M 4.46875 0 L 23.574219 0 L 23.574219 -3.59375 L 8.324219 -3.59375 L 8.324219 -13.84375 L 21.996094 -13.84375 L 21.996094 -17.394531 L 8.324219 -17.394531 L 8.324219 -27.078125 L 23.089844 -27.078125 L 23.089844 -30.671875 L 4.46875 -30.671875 Z M 4.46875 0 "/></g></g></g><g fill="#311ed6" fill-opacity="1"><g transform="translate(160.436424, 193.789946)"><g><path d="M 4.46875 0 L 8.28125 0 L 8.28125 -24.011719 L 25.238281 0 L 28.832031 0 L 28.832031 -30.671875 L 25.0625 -30.671875 L 25.0625 -6.660156 L 8.105469 -30.671875 L 4.46875 -30.671875 Z M 4.46875 0 "/></g></g></g><g fill="#311ed6" fill-opacity="1"><g transform="translate(192.807799, 193.789946)"><g><path d="M 4.46875 0 L 15.074219 0 C 24.492188 0 30.800781 -6.265625 30.800781 -15.335938 C 30.800781 -24.40625 24.492188 -30.671875 15.074219 -30.671875 L 4.46875 -30.671875 Z M 8.324219 -3.679688 L 8.324219 -26.988281 L 14.898438 -26.988281 C 22.039062 -26.988281 26.859375 -22.300781 26.859375 -15.335938 C 26.859375 -8.367188 22.082031 -3.679688 15.074219 -3.679688 Z M 8.324219 -3.679688 "/></g></g></g><g fill="#311ed6" fill-opacity="1"><g transform="translate(225.22298, 193.789946)"><g/></g></g><g fill="#311ed6" fill-opacity="1"><g transform="translate(235.166316, 193.789946)"><g><path d="M 18.402344 0.570312 C 27.734375 0.570312 34.308594 -6.003906 34.308594 -15.335938 C 34.308594 -24.667969 27.734375 -31.238281 18.402344 -31.238281 C 9.070312 -31.238281 2.542969 -24.667969 2.542969 -15.335938 C 2.542969 -6.003906 9.070312 0.570312 18.402344 0.570312 Z M 6.484375 -15.335938 C 6.484375 -22.476562 11.347656 -27.382812 18.402344 -27.382812 C 25.457031 -27.382812 30.320312 -22.476562 30.320312 -15.335938 C 30.320312 -8.195312 25.457031 -3.285156 18.402344 -3.285156 C 11.347656 -3.285156 6.484375 -8.195312 6.484375 -15.335938 Z M 6.484375 -15.335938 "/></g></g></g><g fill="#311ed6" fill-opacity="1"><g transform="translate(271.042077, 193.789946)"><g><path d="M 4.46875 0 L 8.28125 0 L 8.28125 -24.011719 L 25.238281 0 L 28.832031 0 L 28.832031 -30.671875 L 25.0625 -30.671875 L 25.0625 -6.660156 L 8.105469 -30.671875 L 4.46875 -30.671875 Z M 4.46875 0 "/></g></g></g><g fill="#311ed6" fill-opacity="1"><g transform="translate(42.126337, 237.289943)"><g><path d="M 11.875 0 L 15.730469 0 L 15.730469 -26.988281 L 26.070312 -26.988281 L 26.070312 -30.671875 L 1.488281 -30.671875 L 1.488281 -26.988281 L 11.875 -26.988281 Z M 11.875 0 "/></g></g></g><g fill="#311ed6" fill-opacity="1"><g transform="translate(68.803095, 237.289943)"><g><path d="M 24.582031 0 L 28.4375 0 L 28.4375 -30.671875 L 24.582031 -30.671875 L 24.582031 -17.480469 L 8.324219 -17.480469 L 8.324219 -30.671875 L 4.46875 -30.671875 L 4.46875 0 L 8.324219 0 L 8.324219 -13.800781 L 24.582031 -13.800781 Z M 24.582031 0 "/></g></g></g><g fill="#311ed6" fill-opacity="1"><g transform="translate(100.780228, 237.289943)"><g><path d="M 4.46875 0 L 8.324219 0 L 8.324219 -30.671875 L 4.46875 -30.671875 Z M 4.46875 0 "/></g></g></g><g fill="#311ed6" fill-opacity="1"><g transform="translate(112.650978, 237.289943)"><g><path d="M 14.679688 0.570312 C 21.382812 0.570312 25.71875 -2.714844 25.71875 -8.0625 C 25.71875 -12.574219 22.695312 -15.292969 14.851562 -17.21875 C 8.894531 -18.664062 6.921875 -20.242188 6.921875 -22.785156 C 6.921875 -25.71875 9.550781 -27.558594 13.933594 -27.558594 C 18.445312 -27.558594 21.25 -25.28125 21.339844 -21.601562 L 25.148438 -21.601562 C 25.105469 -27.558594 20.8125 -31.238281 13.933594 -31.238281 C 7.230469 -31.238281 2.980469 -27.953125 2.980469 -22.785156 C 2.980469 -18.050781 6.351562 -15.421875 13.890625 -13.625 C 19.410156 -12.3125 21.730469 -10.777344 21.730469 -7.929688 C 21.730469 -4.90625 19.015625 -3.109375 14.679688 -3.109375 C 9.902344 -3.109375 6.570312 -5.476562 6.484375 -9.421875 L 2.628906 -9.421875 C 2.671875 -3.417969 7.359375 0.570312 14.679688 0.570312 Z M 14.679688 0.570312 "/></g></g></g><g fill="#311ed6" fill-opacity="1"><g transform="translate(140.072411, 237.289943)"><g/></g></g><g fill="#311ed6" fill-opacity="1"><g transform="translate(150.015747, 237.289943)"><g><path d="M 12.96875 0 L 16.5625 0 L 28.742188 -30.671875 L 24.667969 -30.671875 L 19.542969 -17.746094 L 14.765625 -5.566406 L 9.945312 -17.746094 L 4.863281 -30.671875 L 0.746094 -30.671875 Z M 12.96875 0 "/></g></g></g><g fill="#311ed6" fill-opacity="1"><g transform="translate(178.576112, 237.289943)"><g><path d="M 18.402344 0.570312 C 27.734375 0.570312 34.308594 -6.003906 34.308594 -15.335938 C 34.308594 -24.667969 27.734375 -31.238281 18.402344 -31.238281 C 9.070312 -31.238281 2.542969 -24.667969 2.542969 -15.335938 C 2.542969 -6.003906 9.070312 0.570312 18.402344 0.570312 Z M 6.484375 -15.335938 C 6.484375 -22.476562 11.347656 -27.382812 18.402344 -27.382812 C 25.457031 -27.382812 30.320312 -22.476562 30.320312 -15.335938 C 30.320312 -8.195312 25.457031 -3.285156 18.402344 -3.285156 C 11.347656 -3.285156 6.484375 -8.195312 6.484375 -15.335938 Z M 6.484375 -15.335938 "/></g></g></g><g fill="#311ed6" fill-opacity="1"><g transform="translate(214.451873, 237.289943)"><g><path d="M 12.269531 0 L 16.035156 0 L 16.035156 -11.042969 L 27.558594 -30.671875 L 23.222656 -30.671875 L 14.195312 -15.160156 L 10.207031 -22.082031 L 5.214844 -30.671875 L 0.746094 -30.671875 L 12.269531 -11.042969 Z M 12.269531 0 "/></g></g></g><g fill="#311ed6" fill-opacity="1"><g transform="translate(241.829504, 237.289943)"><g><path d="M 0.746094 0 L 4.863281 0 L 7.667969 -6.964844 L 22.609375 -6.964844 L 25.5 0 L 29.574219 0 L 16.957031 -30.671875 L 13.363281 -30.671875 Z M 9.15625 -10.558594 L 15.160156 -25.28125 L 21.164062 -10.558594 Z M 9.15625 -10.558594 "/></g></g></g><g fill="#311ed6" fill-opacity="1"><g transform="translate(271.222141, 237.289943)"><g><path d="M 18.140625 0.570312 C 27.558594 0.570312 33.914062 -6.570312 33.738281 -16.648438 L 17.085938 -16.648438 L 17.085938 -12.96875 L 29.574219 -12.96875 C 28.785156 -7.1875 24.40625 -3.285156 18.226562 -3.285156 C 11.347656 -3.285156 6.484375 -8.238281 6.484375 -15.335938 C 6.484375 -22.433594 11.304688 -27.382812 18.183594 -27.382812 C 22.914062 -27.382812 26.683594 -25.0625 28.609375 -21.117188 L 32.816406 -21.117188 C 30.847656 -27.164062 25.0625 -31.238281 18.050781 -31.238281 C 9.070312 -31.238281 2.542969 -24.535156 2.542969 -15.335938 C 2.542969 -6.089844 9.113281 0.570312 18.140625 0.570312 Z M 18.140625 0.570312 "/></g></g></g><g fill="#311ed6" fill-opacity="1"><g transform="translate(306.440828, 237.289943)"><g><path d="M 4.46875 0 L 23.574219 0 L 23.574219 -3.59375 L 8.324219 -3.59375 L 8.324219 -13.84375 L 21.996094 -13.84375 L 21.996094 -17.394531 L 8.324219 -17.394531 L 8.324219 -27.078125 L 23.089844 -27.078125 L 23.089844 -30.671875 L 4.46875 -30.671875 Z M 4.46875 0 "/></g></g></g></svg>